<?xml version="1.0" encoding="UTF-8"?>
<svg version="1.1" xmlns="http://www.w3.org/2000/svg" width="3464" height="3464">
<path d="M0 0 C0.73311401 0.1383728 1.46622803 0.27674561 2.22155762 0.41931152 C71.52852273 13.5341723 139.5107673 31.89133352 206.6942749 53.26678467 C208.73121583 53.91452725 210.76910172 54.55929662 212.80712891 55.20361328 C261.19403872 70.57508618 308.51192268 89.6547807 355 110 C356.57370361 110.68376709 356.57370361 110.68376709 358.17919922 111.38134766 C386.23791074 123.58433325 413.82178423 136.82153291 441.1875 150.5 C441.99818939 150.90484619 442.80887878 151.30969238 443.64413452 151.72680664 C459.99960345 159.90568795 476.21544331 168.34336696 492.1875 177.25 C493.32767578 177.88494385 494.46785156 178.5198877 495.64257812 179.17407227 C506.13720676 185.03275065 516.53201976 191.05646886 526.88427734 197.16259766 C529.61725619 198.77428852 532.35267829 200.38174973 535.08889771 201.9879303 C548.10681059 209.63369497 561.02345027 217.41025376 573.73632812 225.55566406 C576.10391918 227.06630564 578.48024545 228.56229001 580.859375 230.0546875 C590.07583756 235.83745801 599.20183779 241.7282428 608.22460938 247.80859375 C609.96205041 248.97453328 611.70608813 250.12974891 613.453125 251.28125 C644.03718375 271.46664378 673.72709093 293.0821673 702.7265625 315.4765625 C704.86151674 317.12497524 707.00274865 318.76388049 709.1484375 320.3984375 C715.85951389 325.51874023 722.44855234 330.76662407 728.9831543 336.11035156 C733.32043176 339.65255682 737.70284068 343.12712926 742.125 346.5625 C748.69517539 351.68225009 755.00385245 357.07746572 761.29736328 362.53125 C764.01414653 364.87483589 766.757196 367.18698247 769.5 369.5 C771.11642686 370.86706615 772.73232897 372.23475046 774.34814453 373.60253906 C775.46566814 374.54795809 776.58385109 375.4925982 777.70263672 376.43652344 C785.62829108 383.13029189 793.32350316 390.01729533 800.89453125 397.109375 C803.24512684 399.30766266 805.62657579 401.45851515 808.0625 403.5625 C813.22066473 408.02125256 818.19673353 412.67998108 823.19091797 417.3203125 C825.05327815 419.04946743 826.91916878 420.77476075 828.78515625 422.5 C835.44377506 428.67078309 842.00290133 434.90053778 848.33984375 441.40234375 C850.3709341 443.38571392 852.40939085 445.22887778 854.5625 447.0703125 C859.76945918 451.58537383 864.61234028 456.46244585 869.47290039 461.3425293 C871.05959946 462.93458966 872.65157742 464.5212299 874.24414062 466.10742188 C879.12033478 470.98076173 883.87861987 475.90006718 888.36108398 481.14282227 C891.4054996 484.59267621 894.71669576 487.77959431 898 491 C902.66785016 495.57842775 907.16438791 500.21201319 911.40820312 505.18945312 C913.03586624 507.04079509 914.73987981 508.77484909 916.5 510.5 C919.51072823 513.46399852 922.29243751 516.56718597 925.05078125 519.765625 C927.33020694 522.37851376 929.66212353 524.93930021 932 527.5 C939.09760419 535.29031331 945.96245843 543.26986304 952.8125 551.27734375 C954.91232 553.73163705 957.01652637 556.1820438 959.125 558.62890625 C965.1883074 565.67038364 971.14637495 572.7823192 977 580 C978.4159632 581.72974276 979.8326473 583.45889561 981.25 585.1875 C982.83356495 587.1248107 984.41687303 589.06233138 986 591 C986.4954834 591.60505371 986.9909668 592.21010742 987.50146484 592.83349609 C994.82244794 601.7769071 1001.99578328 610.80696556 1009 620 C1010.56205733 622.02117553 1012.12456881 624.04200014 1013.6875 626.0625 C1025.06621485 640.83886718 1036.17316449 655.81504593 1047 671 C1047.49661133 671.69270996 1047.99322266 672.38541992 1048.50488281 673.09912109 C1060.22883066 689.48141469 1071.28354869 706.32536639 1082.42160034 723.10806274 C1084.87744853 726.80838103 1087.33646849 730.50641291 1089.80834961 734.19604492 C1094.33842899 740.95924444 1098.80855441 747.74589382 1103.0625 754.6875 C1103.59504395 755.55286377 1104.12758789 756.41822754 1104.67626953 757.30981445 C1106.45461098 760.20425173 1108.22748908 763.10198899 1110 766 C1110.6595166 767.07507813 1111.3190332 768.15015625 1111.99853516 769.2578125 C1131.67365662 801.35034716 1150.40949876 833.9758285 1167.66943359 867.43603516 C1168.87594965 869.76095839 1170.09817617 872.07621792 1171.33203125 874.38671875 C1185.08310495 900.14349228 1198.02721517 926.37153035 1210 953 C1210.48602692 954.07809937 1210.48602692 954.07809937 1210.98187256 955.17797852 C1248.20155144 1037.78068657 1278.17669883 1123.23040411 1254 2226 C1253.70951782 2226.77563293 1253.41903564 2227.55126587 1253.11975098 2228.35040283 C1226.69145029 2298.82646875 1196.1997421 2368.76289717 1159.39355469 2434.48632812 C1157.86498341 2437.24354079 1156.37106848 2440.01770084 1154.8828125 2442.796875 C1147.83930799 2455.94978014 1140.49975966 2468.89229462 1132.91699219 2481.74121094 C1130.8525649 2485.25063215 1128.8038038 2488.76887767 1126.7578125 2492.2890625 C1119.7000233 2504.42041836 1112.58826904 2516.49512267 1105.00244141 2528.30688477 C1103.07994726 2531.30387672 1101.17314315 2534.30961646 1099.28540039 2537.32861328 C1092.00615148 2548.96425288 1084.45432008 2560.3922568 1076.75 2571.75 C1075.55506617 2573.51519899 1074.36016088 2575.2804173 1073.1652832 2577.0456543 C1056.3503779 2601.86459021 1039.03441435 2626.18157169 1020.81640625 2649.9921875 C1017.94000015 2653.75623175 1015.09698332 2657.54301798 1012.27294922 2661.34643555 C1006.20608852 2669.51367547 999.86109306 2677.42284714 993.40429688 2685.28417969 C991.58419799 2687.50804182 989.78968405 2689.75161541 988 2692 C979.89529004 2702.14791416 971.73543403 2712.2354508 963.23925781 2722.05932617 C960.25923421 2725.50985383 957.35611395 2729.00776824 954.5 2732.5625 C950.15097244 2737.92366488 945.49200516 2742.95570739 940.78515625 2748 C938.02403653 2750.96144168 935.34945349 2753.98985638 932.69921875 2757.05078125 C929.93571604 2760.22086826 927.11172305 2763.33609893 924.29296875 2766.45703125 C922.85298213 2768.05401811 921.41740084 2769.65499983 919.98828125 2771.26171875 C909.81802941 2782.67177272 899.36647763 2793.86331185 888.42480469 2804.53833008 C885.7796728 2807.13701734 883.28567964 2809.7987312 880.875 2812.6171875 C876.38145889 2817.80858682 871.5191997 2822.6306213 866.6574707 2827.47290039 C865.06541034 2829.05959946 863.4787701 2830.65157742 861.89257812 2832.24414062 C856.99882511 2837.14075945 852.0594914 2841.92226017 846.79467773 2846.42358398 C843.71254978 2849.13087553 840.8664918 2852.06806318 838 2855 C833.83645966 2859.25859834 829.57523547 2863.29548557 825.06640625 2867.1875 C821.45118556 2870.35850643 817.98452221 2873.68684773 814.5 2877 C809.67250997 2881.59007249 804.80148899 2886.09878467 799.76855469 2890.46337891 C797.60846711 2892.34018608 795.49039962 2894.26056326 793.375 2896.1875 C787.61552912 2901.38335294 781.72087894 2906.41499076 775.81884766 2911.44726562 C773.43859292 2913.47926832 771.06448645 2915.5183802 768.69042969 2917.55761719 C766.36340636 2919.55535699 764.03334952 2921.54953541 761.70263672 2923.54296875 C760.58374887 2924.50045694 759.46556287 2925.45876601 758.34814453 2926.41796875 C751.82937814 2932.0105181 745.22474526 2937.45549504 738.44580078 2942.73022461 C733.86802087 2946.29710443 729.36563191 2949.94924777 724.875 2953.625 C719.48403148 2958.02611583 714.0302643 2962.30275571 708.43359375 2966.44140625 C704.78834404 2969.14220996 701.19362422 2971.90809423 697.59301758 2974.66796875 C688.55454824 2981.59153531 679.43240556 2988.37140699 670.17578125 2995 C666.95719412 2997.30497585 663.76516889 2999.64247133 660.58496094 3002 C643.13807418 3014.91934755 625.12897686 3027.06406964 607 3039 C606.08782715 3039.60166992 605.1756543 3040.20333984 604.23583984 3040.82324219 C581.50978076 3055.79542667 558.41355238 3070.12900814 535 3084 C534.01032227 3084.5863623 533.02064453 3085.17272461 532.00097656 3085.77685547 C509.53893 3099.05190277 486.76071005 3111.70375579 463.57275391 3123.66503906 C461.22163748 3124.88499585 458.8800212 3126.12054912 456.54296875 3127.3671875 C432.06203842 3140.42515417 407.15535285 3152.71203655 381.87792969 3164.14959717 C379.92803081 3165.03259057 377.97958863 3165.91874552 376.03125 3166.80517578 C337.05732522 3184.51134451 297.47700593 3200.59280705 257.23669434 3215.18670654 C255.19283247 3215.92988341 253.15101157 3216.6782593 251.11035156 3217.43017578 C154.21330274 3253.12270128 53.08520384 3278.00710976 -229.0625 3313.1875 C-229.74427307 3313.22442963 -230.42604614 3313.26135925 -231.128479 3313.29940796 C-235.2703085 3313.51932867 -239.41280387 3313.71377478 -243.55654907 3313.89285278 C-245.27931763 3313.96839752 -247.00194418 3314.04721567 -248.72445679 3314.12838745 C-270.04468641 3315.12237936 -291.34876987 3315.2016519 -312.6875 3315.1875 C-314.04307573 3315.18709969 -314.04307573 3315.18709969 -315.42603683 3315.18669128 C-344.66287908 3315.17587486 -373.81119063 3314.81076862 -403 3313 C-404.08277222 3312.93447937 -405.16554443 3312.86895874 -406.28112793 3312.80145264 C-440.60953732 3310.72184825 -474.82744213 3307.87653146 -509 3304 C-509.88008728 3303.90052063 -510.76017456 3303.80104126 -511.66693115 3303.69854736 C-606.45046046 3292.93501286 -700.68318657 3273.60421795 -863 3223 C-863.70257935 3222.76085876 -864.40515869 3222.52171753 -865.12902832 3222.27532959 C-948.28131579 3193.93312562 -1029.81334593 3157.95696563 -1155.14306641 3088.68212891 C-1157.93939218 3087.03568517 -1160.74057826 3085.39781368 -1163.54296875 3083.76171875 C-1176.23128888 3076.33509982 -1188.73051473 3068.6304883 -1201.16503906 3060.78710938 C-1203.84414223 3059.09824999 -1206.5268967 3057.41537257 -1209.2109375 3055.734375 C-1218.25921771 3050.058342 -1227.2109558 3044.26257471 -1236.06933594 3038.29492188 C-1238.11601714 3036.92218577 -1240.17033703 3035.56151953 -1242.2265625 3034.203125 C-1253.62439334 3026.66501701 -1264.84295881 3018.88950106 -1276 3011 C-1276.6388916 3010.54915039 -1277.2777832 3010.09830078 -1277.93603516 3009.63378906 C-1295.82130634 2997.00018973 -1313.39632484 2983.90644657 -1330.7265625 2970.5234375 C-1332.86151674 2968.87502476 -1335.00274865 2967.23611951 -1337.1484375 2965.6015625 C-1343.85951389 2960.48125977 -1350.44855234 2955.23337593 -1356.9831543 2949.88964844 C-1361.32043176 2946.34744318 -1365.70284068 2942.87287074 -1370.125 2939.4375 C-1376.69517539 2934.31774991 -1383.00385245 2928.92253428 -1389.29736328 2923.46875 C-1392.01414653 2921.12516411 -1394.757196 2918.81301753 -1397.5 2916.5 C-1399.11642686 2915.13293385 -1400.73232897 2913.76524954 -1402.34814453 2912.39746094 C-1403.46566814 2911.45204191 -1404.58385109 2910.5074018 -1405.70263672 2909.56347656 C-1413.62829108 2902.86970811 -1421.32350316 2895.98270467 -1428.89453125 2888.890625 C-1431.24512684 2886.69233734 -1433.62657579 2884.54148485 -1436.0625 2882.4375 C-1441.21908695 2877.98011128 -1446.19381414 2873.3229445 -1451.18652344 2868.68408203 C-1453.06237208 2866.94207827 -1454.94134543 2865.2034829 -1456.8203125 2863.46484375 C-1463.19438796 2857.55398649 -1469.50037092 2851.61564025 -1475.55859375 2845.37890625 C-1477.48434315 2843.50245604 -1479.42658279 2841.76565556 -1481.46875 2840.0234375 C-1487.01067985 2835.21310702 -1492.15061652 2829.99881649 -1497.32739258 2824.80297852 C-1499.058947 2823.066064 -1500.79578359 2821.33456111 -1502.53320312 2819.60351562 C-1507.67158112 2814.46789946 -1512.710574 2809.32152441 -1517.42749023 2803.79077148 C-1520.28788159 2800.53336261 -1523.40621846 2797.53355423 -1526.5 2794.5 C-1531.01947185 2790.02907716 -1535.42580628 2785.54700481 -1539.53125 2780.6875 C-1541.11262969 2778.87059567 -1542.78197196 2777.1878872 -1544.5 2775.5 C-1547.51072823 2772.53600148 -1550.29243751 2769.43281403 -1553.05078125 2766.234375 C-1555.33020694 2763.62148624 -1557.66212353 2761.06069979 -1560 2758.5 C-1567.09760419 2750.70968669 -1573.96245843 2742.73013696 -1580.8125 2734.72265625 C-1582.91232 2732.26836295 -1585.01652637 2729.8179562 -1587.125 2727.37109375 C-1592.33727625 2721.31810108 -1597.49643148 2715.23356266 -1602.53125 2709.03125 C-1604.43841775 2706.6895377 -1606.35524798 2704.35740313 -1608.28125 2702.03125 C-1618.67081209 2689.47945855 -1628.73697753 2676.70946605 -1638.64160156 2663.77197266 C-1640.09930033 2661.87046696 -1641.56125986 2659.97228216 -1643.0234375 2658.07421875 C-1651.16382254 2647.49047158 -1659.1286401 2636.78511675 -1667 2626 C-1667.56251465 2625.22978516 -1668.1250293 2624.45957031 -1668.70458984 2623.66601562 C-1670.36884817 2621.38388025 -1672.02905538 2619.09886297 -1673.6875 2616.8125 C-1674.16123047 2616.161604 -1674.63496094 2615.51070801 -1675.12304688 2614.84008789 C-1695.49314905 2586.65299327 -1715.2202356 2557.61797992 -1733.25146484 2527.88330078 C-1734.85717099 2525.23552229 -1736.47238459 2522.59374931 -1738.09086609 2519.95376587 C-1752.60175017 2496.27747915 -1766.5728573 2472.30856124 -1780 2448 C-1780.52916016 2447.04222656 -1781.05832031 2446.08445312 -1781.60351562 2445.09765625 C-1791.05272953 2427.94080211 -1800.04302238 2410.55038706 -1808.93109131 2393.09814453 C-1809.9782894 2391.0426154 -1811.02737926 2388.98806028 -1812.07666016 2386.93359375 C-1821.61964055 2368.22627518 -1830.61024919 2349.31947576 -1839.15429688 2330.13574219 C-1840.66818858 2326.73777649 -1842.19727479 2323.34691666 -1843.73094177 2319.95783997 C-1859.39157233 2285.31121993 -1873.3282211 2249.89518358 -1886.22967529 2214.13452148 C-1887.00807231 2211.97763214 -1887.78937675 2209.8218099 -1888.57080078 2207.66601562 C-1916.8774383 2129.40866782 -1939.28760557 2048.73351154 -1955 1967 C-1955.17770935 1966.07842102 -1955.3554187 1965.15684204 -1955.53851318 1964.20733643 C-1970.15509823 1888.21471263 -1979.89012028 1811.28784879 -1984 1734 C-1984.05220703 1733.03215576 -1984.10441406 1732.06431152 -1984.15820312 1731.06713867 C-1987.33358506 1671.50422592 -1987.16497183 1611.5593484 -1984 1552 C-1983.94908203 1551.03302185 -1983.89816406 1550.0660437 -1983.84570312 1549.06976318 C-1978.9092368 1456.52859407 -1965.96716461 1364.1125289 -1848.82373047 977.87670898 C-1847.54231201 974.9572473 -1846.2725004 972.03273259 -1845 969.109375 C-1827.53366992 929.19563103 -1808.68613998 889.53504431 -1787.39355469 851.51367188 C-1785.86498341 848.75645921 -1784.37106848 845.98229916 -1782.8828125 843.203125 C-1775.79147769 829.9615464 -1768.39275105 816.93737926 -1760.76171875 804 C-1759.00453648 801.0077251 -1757.26509344 798.00585048 -1755.53125 795 C-1747.99278494 781.94599931 -1740.18544274 769.08858213 -1732.11914062 756.35400391 C-1730.51726154 753.81867962 -1728.92310177 751.27914147 -1727.33398438 748.73583984 C-1720.03616579 737.08047588 -1712.46927283 725.62978661 -1704.75 714.25 C-1703.55506617 712.48480101 -1702.36016088 710.7195827 -1701.1652832 708.9543457 C-1688.66974397 690.51082895 -1676.04036202 672.2012411 -1662.73095703 654.33251953 C-1660.94472382 651.92551359 -1659.17181796 649.50919237 -1657.40234375 647.08984375 C-1650.86159649 638.15162048 -1644.21844369 629.32404389 -1637.31787109 620.66064453 C-1635.98131766 618.97645845 -1634.65512479 617.28461989 -1633.33203125 615.58984375 C-1627.91471644 608.65273927 -1622.41408652 601.79068482 -1616.84521484 594.97460938 C-1613.25323879 590.56981924 -1609.73537656 586.11437676 -1606.25 581.625 C-1602.41782568 576.70056675 -1598.40613677 572.02072877 -1594.1796875 567.42578125 C-1591.86407108 564.84872426 -1589.67794934 562.19417609 -1587.5 559.5 C-1583.83579669 554.97400672 -1580.02241167 550.62436929 -1576.10546875 546.31640625 C-1572.13576452 541.94899511 -1568.26507923 537.50057859 -1564.4609375 532.98828125 C-1556.93019224 524.0698481 -1549.0290106 515.55884064 -1540.98730469 507.10058594 C-1538.47350731 504.44349593 -1535.98725843 501.76160851 -1533.50170898 499.078125 C-1527.74366769 492.86345298 -1521.87586281 486.800452 -1515.81640625 480.87890625 C-1513.74588532 478.81348423 -1511.82896334 476.66097902 -1509.9296875 474.4375 C-1505.28608209 469.07686263 -1500.25174772 464.1021569 -1495.23022461 459.09985352 C-1493.56573723 457.4407268 -1491.90666553 455.77631949 -1490.24804688 454.11132812 C-1485.23029238 449.09076041 -1480.17821654 444.17098812 -1474.77709961 439.55883789 C-1471.69946016 436.85919125 -1468.8605793 433.92588933 -1466 431 C-1461.83645966 426.74140166 -1457.57523547 422.70451443 -1453.06640625 418.8125 C-1449.45118556 415.64149357 -1445.98452221 412.31315227 -1442.5 409 C-1437.68744023 404.4241235 -1432.83054365 399.93182119 -1427.81298828 395.58105469 C-1425.39631015 393.47353952 -1423.04273937 391.30075768 -1420.6875 389.125 C-1416.1482504 384.98074035 -1411.46541704 381.07421602 -1406.68359375 377.21484375 C-1404.05291443 375.04367173 -1401.52057576 372.79758643 -1399 370.5 C-1394.75348314 366.63466655 -1390.3698689 362.98601754 -1385.90625 359.375 C-1382.7960684 356.83334622 -1379.74111159 354.23391534 -1376.6875 351.625 C-1371.10328942 346.86992239 -1365.38006413 342.31809932 -1359.59375 337.8125 C-1356.53487985 335.42818418 -1353.51034492 333.0038978 -1350.4921875 330.56835938 C-1344.12849737 325.43613647 -1337.6757306 320.44898727 -1331.1171875 315.56835938 C-1326.96456135 312.47793972 -1322.84240879 309.35241216 -1318.74194336 306.19311523 C-1310.04053416 299.49069198 -1301.19160213 293.01885798 -1292.26171875 286.625 C-1290.01189508 285.00854638 -1287.77034063 283.38128144 -1285.53125 281.75 C-1268.99638293 269.7136293 -1252.06933277 258.26248624 -1235 247 C-1233.69337402 246.13785889 -1233.69337402 246.13785889 -1232.36035156 245.25830078 C-1209.5901611 230.26221605 -1186.45664389 215.89652075 -1163 202 C-1162.01032227 201.4136377 -1161.02064453 200.82727539 -1160.00097656 200.22314453 C-1137.53893 186.94809723 -1114.76071005 174.29624421 -1091.57275391 162.33496094 C-1089.22163748 161.11500415 -1086.8800212 159.87945088 -1084.54296875 158.6328125 C-1060.06203842 145.57484583 -1035.15535285 133.28796345 -1009.87792969 121.85040283 C-1007.92803081 120.96740943 -1005.97958863 120.08125448 -1004.03125 119.19482422 C-966.76798972 102.26572387 -928.94252622 86.73199533 -890.51025391 72.65966797 C-886.99644875 71.37097109 -883.49247602 70.05840747 -879.99304199 68.73124695 C-786.95878394 33.4660903 -687.79913621 9.08922884 -437.487854 -24.80078125 C-435.29423842 -24.9764384 -433.10092271 -25.15527583 -430.90771484 -25.3359375 C-423.32421917 -25.9530412 -415.73956814 -26.4677028 -408.14227295 -26.8828125 C-406.64500171 -26.96471685 -405.1478151 -27.04817631 -403.6506958 -27.1328125 C-309.58928162 -32.42002366 -214.78505398 -29.17376309 0 0 Z " fill="#000000" transform="translate(2046,89)"/>
<path d="M0 0 C0 157.08 0 314.16 0 476 C-17 478 -17 478 -22.18920898 478.60668945 C-42.62942976 481.00339557 -62.86745683 483.65208739 -83 488 C-84.40592907 488.29648673 -85.81202617 488.5921774 -87.21826172 488.88720703 C-103.94108356 492.40267595 -120.50426905 496.05885338 -136.76953125 501.359375 C-140.86081745 502.68699757 -144.98365562 503.79273851 -149.1484375 504.8671875 C-157.18499387 506.96317808 -164.99199358 509.58892466 -172.8125 512.375 C-173.53522095 512.63122131 -174.25794189 512.88744263 -175.00256348 513.15142822 C-237.57106154 535.40447076 -297.21373153 565.97654022 -351 605 C-351.7317041 605.52899902 -352.4634082 606.05799805 -353.21728516 606.60302734 C-363.83423481 614.29192936 -374.18479081 622.2192984 -384.28076172 630.58056641 C-386.69305718 632.57220029 -389.12995367 634.53318419 -391.5625 636.5 C-407.46342536 649.54018916 -422.55913904 663.36801 -437 678 C-439.97620061 680.98622148 -442.96629164 683.95808581 -445.9609375 686.92578125 C-447.43234884 688.3879633 -448.9037016 689.8502043 -450.375 691.3125 C-451.10460938 692.03373047 -451.83421875 692.75496094 -452.5859375 693.49804688 C-457.27332514 698.16450868 -461.68663113 702.98841402 -466 708 C-467.45445517 709.60768373 -468.91220895 711.21239715 -470.375 712.8125 C-474.21928245 717.07745308 -477.89526905 721.4486085 -481.50390625 725.9140625 C-483.31198156 728.14939817 -485.13112763 730.37188205 -486.96484375 732.5859375 C-504.82473666 754.22446601 -521.02797068 777.28138176 -536 801 C-536.67160156 802.05832031 -537.34320312 803.11664062 -538.03515625 804.20703125 C-544.33667477 814.28687299 -550.19007554 824.63132884 -556 835 C-556.52255371 835.93247559 -557.04510742 836.86495117 -557.58349609 837.82568359 C-585.03153446 887.06298139 -606.53242326 939.70572305 -620.34033203 994.38769531 C-620.91769594 996.67407348 -621.50208095 998.95846686 -622.08984375 1001.2421875 C-630.40522614 1033.90260506 -636.37545451 1066.82882891 -640.1875 1100.3125 C-640.27217529 1101.03970245 -640.35685059 1101.76690491 -640.4440918 1102.5161438 C-643.24465508 1126.76083412 -643.24210152 1151.06450936 -643.25 1175.4375 C-643.25058914 1176.27085121 -643.25117828 1177.10420242 -643.25178528 1177.9628067 C-643.26414506 1202.75526063 -643.03250223 1227.35893475 -640 1252 C-639.8448291 1253.29679687 -639.6896582 1254.59359375 -639.52978516 1255.9296875 C-638.50403389 1264.31136142 -637.3090968 1272.6582553 -636 1281 C-635.75830078 1282.56379395 -635.75830078 1282.56379395 -635.51171875 1284.15917969 C-632.53886538 1303.2349888 -628.90834104 1322.20266527 -624.5 1341 C-624.32283447 1341.76272217 -624.14566895 1342.52544434 -623.96313477 1343.3112793 C-607.67299225 1410.99285781 -579.7171002 1476.40067457 -544 1536 C-543.24541504 1537.26312012 -543.24541504 1537.26312012 -542.47558594 1538.55175781 C-530.14588481 1559.13995412 -516.61625976 1578.96385331 -502 1598 C-501.48179687 1598.67675781 -500.96359375 1599.35351562 -500.4296875 1600.05078125 C-493.2897962 1609.35872174 -486.03686959 1618.52887219 -478.36962891 1627.40820312 C-476.92900525 1629.08251083 -475.50068597 1630.76674464 -474.07421875 1632.453125 C-463.57505285 1644.83947409 -452.55484924 1656.59608493 -441 1668 C-437.86756932 1671.1216292 -434.75109797 1674.25882338 -431.63671875 1677.3984375 C-429.98704484 1679.05735698 -428.33730342 1680.71620932 -426.6875 1682.375 C-425.46256836 1683.6125 -425.46256836 1683.6125 -424.21289062 1684.875 C-419.30708426 1689.80035141 -414.28402166 1694.48532312 -409 1699 C-407.80843955 1700.04521714 -406.61830731 1701.09206497 -405.4296875 1702.140625 C-398.86618962 1707.89362272 -392.23237895 1713.50105788 -385.328125 1718.84155273 C-382.26854271 1721.20991815 -379.24452819 1723.60787555 -376.26953125 1726.08203125 C-366.61602596 1734.10299438 -356.57751401 1741.37950814 -346.22412109 1748.47070312 C-344.34358372 1749.76375319 -342.47453212 1751.07006951 -340.61328125 1752.390625 C-275.62191964 1798.26688025 -200.71182399 1832.87414216 -123.57275391 1852.34912109 C-121.40430333 1852.89771563 -119.23866539 1853.45541484 -117.07421875 1854.01953125 C-88.37738167 1861.38975717 -59.61263966 1866.78700835 -30.25 1870.6875 C-29.43207977 1870.79636536 -28.61415955 1870.90523071 -27.77145386 1871.01739502 C-25.39499214 1871.33182516 -23.01795882 1871.64145795 -20.640625 1871.94921875 C-19.94757767 1872.04070694 -19.25453033 1872.13219513 -18.54048157 1872.22645569 C-12.35976751 1873.0159588 -6.23088953 1873.48075921 0 1874 C0 2031.08 0 2188.16 0 2350 C-63.82003308 2346.09265104 -63.82003308 2346.09265104 -90 2342.6875 C-90.82508057 2342.58150482 -91.65016113 2342.47550964 -92.50024414 2342.36630249 C-106.17621309 2340.60374796 -119.76198421 2338.49345797 -133.34375 2336.11328125 C-138.09193796 2335.29075215 -142.84218884 2334.60378983 -147.62109375 2333.984375 C-153.97876945 2333.15690559 -160.26829423 2332.1543134 -166.5625 2330.9375 C-168.17741333 2330.62594971 -168.17741333 2330.62594971 -169.82495117 2330.30810547 C-184.77787358 2327.34232268 -199.58150742 2323.69879187 -214.39501953 2320.11230469 C-218.67601176 2319.07640585 -222.96049636 2318.05571193 -227.24609375 2317.0390625 C-244.23521621 2312.99785014 -261.05128724 2308.69856449 -277.66845703 2303.31811523 C-282.05058686 2301.90405902 -286.45004625 2300.56947509 -290.87174988 2299.28382874 C-300.22876882 2296.56240021 -309.50625294 2293.64622694 -318.75 2290.5625 C-319.51290344 2290.30811157 -320.27580688 2290.05372314 -321.06182861 2289.79162598 C-352.29522593 2279.33900852 -382.80293056 2267.12828651 -413 2254 C-414.02528809 2253.55551514 -414.02528809 2253.55551514 -415.07128906 2253.10205078 C-434.21526581 2244.79261095 -452.94471398 2235.67512125 -471.625 2226.375 C-472.66765015 2225.85769318 -473.71030029 2225.34038635 -474.7845459 2224.80740356 C-488.94294991 2217.76968617 -502.78792885 2210.30643853 -516.49539185 2202.42765808 C-519.68682076 2200.60850355 -522.90127982 2198.83353718 -526.12294006 2197.06860352 C-553.71852054 2181.94990556 -579.915953 2164.55213363 -606 2147 C-606.85851563 2146.4229834 -607.71703125 2145.8459668 -608.6015625 2145.25146484 C-619.63451594 2137.81737895 -630.3351599 2129.95068993 -641 2122 C-641.59329102 2121.55881836 -642.18658203 2121.11763672 -642.79785156 2120.66308594 C-646.2106942 2118.1245909 -649.60978865 2115.5686281 -653 2113 C-654.00804687 2112.236875 -655.01609375 2111.47375 -656.0546875 2110.6875 C-663.5883499 2104.95342337 -670.95009639 2099.02132812 -678.28125 2093.03125 C-681.23111391 2090.62150201 -684.20180078 2088.24029419 -687.1875 2085.875 C-692.66371201 2081.50685096 -697.98989153 2076.96452835 -703.32226562 2072.42333984 C-704.97478263 2071.02139366 -706.63442787 2069.62843101 -708.296875 2068.23828125 C-714.69713758 2062.87767946 -720.93731038 2057.38926338 -727.05078125 2051.703125 C-729.28101437 2049.63836704 -731.55729117 2047.63393944 -733.8515625 2045.640625 C-738.00870566 2042.01733204 -742.04645824 2038.2784292 -746.0625 2034.5 C-747.06506836 2033.56220703 -747.06506836 2033.56220703 -748.08789062 2032.60546875 C-751.27864651 2029.61006526 -754.42539524 2026.58730581 -757.49609375 2023.46875 C-759.84012678 2021.10392952 -762.24980909 2018.88207707 -764.77734375 2016.71484375 C-769.95135179 2012.24632561 -774.74088983 2007.40475947 -779.5625 2002.5625 C-780.46935547 2001.65951172 -781.37621094 2000.75652344 -782.31054688 1999.82617188 C-786.88537004 1995.24471373 -791.31100198 1990.60465935 -795.52709961 1985.69116211 C-797.41809575 1983.51994874 -799.43405197 1981.50427794 -801.5 1979.5 C-804.82426543 1976.21484357 -807.9463983 1972.84219312 -810.98828125 1969.296875 C-813.6028069 1966.31174668 -816.30055704 1963.40823965 -819 1960.5 C-830.49497897 1948.08992779 -841.33237665 1935.124097 -852 1922 C-852.98539257 1920.79664196 -853.97108827 1919.59353211 -854.95703125 1918.390625 C-872.20659532 1897.30811879 -888.81706113 1875.688268 -904.37646484 1853.32568359 C-906.1541027 1850.77925078 -907.94582132 1848.24305034 -909.73828125 1845.70703125 C-919.58245111 1831.7320422 -928.90902966 1817.47468911 -938 1803 C-938.57347168 1802.09008301 -939.14694336 1801.18016602 -939.73779297 1800.24267578 C-948.48120734 1786.34913642 -956.83729813 1772.24174287 -965 1758 C-965.86044922 1756.49977295 -965.86044922 1756.49977295 -966.73828125 1754.96923828 C-975.96160107 1738.83103111 -984.63300333 1722.43087411 -993.05212402 1705.86322021 C-993.99757153 1704.0047736 -994.94615478 1702.14795807 -995.89550781 1700.29150391 C-1017.211425 1658.56789147 -1035.13693008 1615.48552254 -1051.25 1571.5 C-1051.64818939 1570.41683502 -1052.04637878 1569.33367004 -1052.45663452 1568.21768188 C-1056.94201644 1555.98362532 -1061.13994975 1543.72950923 -1064.75708008 1531.20947266 C-1065.8662272 1527.38468734 -1067.12038874 1523.63314231 -1068.4375 1519.875 C-1071.86589281 1509.75517815 -1074.4756214 1499.39814251 -1077.19189453 1489.06933594 C-1077.88065372 1486.45329952 -1078.57641882 1483.83935762 -1079.27734375 1481.2265625 C-1088.17536501 1447.94796298 -1095.79904349 1414.59262874 -1101.55413818 1380.62322998 C-1102.02705036 1377.84084911 -1102.50470497 1375.05930786 -1102.98291016 1372.27783203 C-1107.4418282 1346.2834913 -1111.36031286 1320.36941002 -1113.80072021 1294.10583496 C-1114.05482402 1291.42066209 -1114.32585185 1288.73737644 -1114.60073853 1286.05426025 C-1118.15086272 1250.80596292 -1119.386684 1215.56932449 -1119.31745148 1180.15467072 C-1119.31240864 1177.3237119 -1119.31095248 1174.49276711 -1119.30999756 1171.6618042 C-1119.28869597 1141.98125596 -1118.56318753 1112.44911602 -1116.22463989 1082.84841919 C-1115.98112129 1079.76061915 -1115.74623776 1076.67221766 -1115.51147461 1073.58374023 C-1114.64361106 1062.30004427 -1113.70495745 1051.04524439 -1112.3125 1039.8125 C-1112.23240692 1039.15876404 -1112.15231384 1038.50502808 -1112.0697937 1037.83148193 C-1108.40635133 1008.10138947 -1103.90430137 978.36961195 -1098 949 C-1097.80196777 948.0109668 -1097.60393555 947.02193359 -1097.39990234 946.00292969 C-1096.19026703 940.00243786 -1094.93687166 934.01230084 -1093.65039062 928.02783203 C-1093.21610909 926.00607542 -1092.78512879 923.98360691 -1092.35742188 921.96044922 C-1078.1464716 854.86143253 -1057.10164118 789.38766377 -1031 726 C-1030.68222595 725.22479004 -1030.3644519 724.44958008 -1030.03704834 723.65087891 C-1020.68643968 700.84481313 -1010.25044865 678.65025623 -999.27636719 656.58349609 C-997.47198295 652.95518726 -995.68147987 649.32032258 -993.89784241 645.68177795 C-986.55077522 630.70058911 -978.8218984 616.00921473 -970.46826172 601.56054688 C-968.17878852 597.56786398 -965.96765528 593.5328488 -963.75 589.5 C-956.21012107 575.87246689 -947.98409685 562.70111148 -939.62548828 549.56396484 C-937.96879626 546.95078077 -936.32513425 544.32975547 -934.68359375 541.70703125 C-926.76030136 529.08883313 -918.44381255 516.79615279 -909.8515625 504.62451172 C-908.16546857 502.23454472 -906.48726584 499.83931812 -904.8125 497.44140625 C-893.98039247 481.96188918 -882.79379579 466.76114505 -871 452 C-870.34 451.16855469 -869.68 450.33710937 -869 449.48046875 C-863.22833319 442.22981233 -857.36848091 435.04979026 -851.51611328 427.86425781 C-850.21448467 426.2637367 -848.91734343 424.65956806 -847.62109375 423.0546875 C-838.82346492 412.19941804 -829.61956735 401.69395288 -820.1796875 391.39453125 C-818.33754968 389.37082071 -816.53511863 387.32375721 -814.75 385.25 C-810.77000432 380.6706638 -806.60905646 376.26123244 -802.45922852 371.83642578 C-799.62981214 368.81922451 -796.80586107 365.79894718 -794.0234375 362.73828125 C-788.24424545 356.38563461 -782.31220752 350.20894059 -776.25 344.125 C-775.55285889 343.4232666 -774.85571777 342.7215332 -774.13745117 341.99853516 C-770.20601902 338.07875515 -766.16290153 334.36701863 -761.95996094 330.74169922 C-758.65898836 327.80832373 -755.59072048 324.65162336 -752.5 321.5 C-748.17191357 317.13004766 -743.85394216 312.83834064 -739.15234375 308.8671875 C-736.02812385 306.15688421 -733.02211039 303.32316268 -730 300.5 C-722.01185185 293.0555478 -713.7837771 285.94158954 -705.4375 278.90234375 C-703.16212796 276.983145 -700.89142508 275.05866179 -698.625 273.12890625 C-692.17174293 267.63814319 -685.65701555 262.24313614 -679 257 C-678.47825195 256.58782227 -677.95650391 256.17564453 -677.41894531 255.75097656 C-654.20737053 237.41477006 -630.75384236 219.22028092 -606 203 C-604.23025156 201.81914354 -602.46332061 200.63413612 -600.69628906 199.44921875 C-576.32007905 183.12259183 -551.47437196 167.55736962 -526 153 C-524.99356445 152.4239502 -523.98712891 151.84790039 -522.95019531 151.25439453 C-507.4499825 142.4087621 -491.73950005 134.02100888 -475.83197021 125.93225098 C-473.95028594 124.97470156 -472.07003856 124.01437239 -470.18994141 123.05371094 C-429.20965787 102.1390202 -387.06570591 84.49935763 -343.95410156 68.47460938 C-340.67863177 67.25605605 -337.41202341 66.01570857 -334.1484375 64.765625 C-316.08343788 57.91878199 -297.49671354 52.54195425 -279 47 C-277.94425781 46.68289063 -276.88851562 46.36578125 -275.80078125 46.0390625 C-269.8893315 44.27523259 -263.95403422 42.61379759 -258 41 C-257.35434082 40.82424438 -256.70868164 40.64848877 -256.04345703 40.46740723 C-236.94123941 35.27006472 -217.85420841 30.30200175 -198.44921875 26.3515625 C-194.37366304 25.52067337 -190.32950099 24.60607924 -186.28849792 23.62081909 C-174.57153564 20.77510237 -162.74152148 18.62058731 -150.875 16.5 C-149.77261993 16.30201813 -148.67023987 16.10403625 -147.53445435 15.90005493 C-130.9569475 12.93289397 -114.41698579 10.33227194 -97.68115234 8.42822266 C-93.69607114 7.96464443 -89.71741372 7.46079076 -85.73828125 6.94921875 C-71.53458605 5.13681837 -57.364562 3.54432621 -43.06347656 2.68310547 C-37.97425819 2.36431592 -33.06468351 1.86218246 -28.046875 0.9453125 C-18.7756549 -0.29838776 -9.35426708 0 0 0 Z " fill="#FEFEFE" transform="translate(1675,557)"/>
<path d="M0 0 C2.76200565 3.32378859 5.0957306 6.65818954 7.25 10.40234375 C7.85223389 11.44608154 8.45446777 12.48981934 9.07495117 13.56518555 C9.71021729 14.67804932 10.3454834 15.79091309 11 16.9375 C11.67094523 18.1078486 12.34192553 19.27817711 13.01293945 20.44848633 C34.97996017 58.8485492 55.52980816 98.34016301 73 139 C73.2930603 139.6808667 73.58612061 140.3617334 73.88806152 141.06323242 C98.12469142 197.44627358 118.00455067 255.48551238 133 315 C133.36949597 316.4518982 133.73924943 317.90373092 134.109375 319.35546875 C134.9053805 322.50360525 135.6901295 325.65407118 136.46240234 328.80810547 C136.85638095 330.41443605 137.25290154 332.02014374 137.65087891 333.62548828 C146.8746459 370.893553 154.46393235 408.85217751 159 447 C159.11263184 447.92055176 159.22526367 448.84110352 159.34130859 449.78955078 C160.12962364 456.24986249 160.86685267 462.71480216 161.57763672 469.18408203 C161.87068255 471.83165799 162.16852405 474.47828016 162.47314453 477.12451172 C172.48327536 564.41139548 171.71449762 652.99254635 162.2923584 740.28289795 C162.0318557 742.70394153 161.7768551 745.12546874 161.52441406 747.54736328 C159.60522826 765.79605911 156.62055156 783.85105323 153.5625 801.9375 C153.28158508 803.60085892 153.28158508 803.60085892 152.99499512 805.29782104 C149.41107928 826.40982711 145.39200815 847.4336422 140.625 868.3125 C140.48070557 868.94688995 140.33641113 869.58127991 140.18774414 870.2348938 C135.36463802 891.41293365 130.08787456 912.42471766 123.83203125 933.22753906 C123.02480774 935.91733665 122.22942025 938.6103497 121.4375 941.3046875 C118.8464463 950.08515525 116.13589494 958.81114945 113.17944336 967.47607422 C111.79354934 971.54956875 110.50566136 975.63891409 109.2734375 979.76171875 C106.41966652 989.07780907 103.07995767 998.22046529 99.75 1007.375 C99.40262787 1008.33109161 99.05525574 1009.28718323 98.69735718 1010.27224731 C83.76826868 1051.24947395 66.200502 1090.96447379 46.94525146 1130.07696533 C46.03826451 1131.92215407 45.13484688 1133.76903751 44.23291016 1135.61669922 C37.17271716 1150.06294027 29.68264728 1164.1590573 21.65917969 1178.09179688 C19.95801073 1181.07359861 18.29080381 1184.07211883 16.6328125 1187.078125 C5.67917316 1206.92418466 -6.09523128 1226.24227129 -18.5234375 1245.19921875 C-20.24686518 1247.82924828 -21.93497754 1250.47812053 -23.6015625 1253.14453125 C-24.01672119 1253.80485352 -24.43187988 1254.46517578 -24.85961914 1255.14550781 C-25.64052396 1256.39001049 -26.41608314 1257.63788949 -27.18530273 1258.88964844 C-28.07086815 1260.29438153 -29.02876391 1261.65307698 -30 1263 C-30.66 1263 -31.32 1263 -32 1263 C-33.2458511 1261.7349391 -33.2458511 1261.7349391 -34.77040195 1259.86211395 C-40.36911524 1253.28862289 -46.56513954 1247.3004595 -52.67356873 1241.20617676 C-54.07400599 1239.80530305 -55.47422333 1238.40420945 -56.87424046 1237.00291586 C-60.70991462 1233.16501116 -64.54869061 1229.33022231 -68.38798988 1225.4959445 C-72.53218605 1221.35607334 -76.67348514 1217.21330586 -80.81513977 1213.07089233 C-87.98723663 1205.89827154 -95.16115977 1198.72748158 -102.33633232 1191.55793762 C-112.71038109 1181.19202151 -123.08166406 1170.82334125 -133.4522735 1160.45398444 C-150.27860054 1143.62975621 -167.10724343 1126.8078462 -183.93725586 1109.98730469 C-200.28446077 1093.64928837 -216.63061184 1077.31021887 -232.9753418 1060.96972656 C-233.73144712 1060.21381853 -233.73144712 1060.21381853 -234.5028273 1059.44263963 C-239.5650386 1054.38174688 -244.62722853 1049.32083276 -249.6894028 1044.25990298 C-260.00106842 1033.95077338 -270.31287664 1023.64178642 -280.62477112 1013.33288574 C-281.09886534 1012.85892881 -281.57295957 1012.38497187 -282.06142029 1011.8966526 C-313.70522428 980.26204483 -345.35236225 948.63077238 -377 917 C-376.5236215 915.55107808 -376.0455497 914.1027128 -375.5667572 912.65458679 C-375.30071151 911.84796947 -375.03466581 911.04135214 -374.76055813 910.21029186 C-373.96789463 907.90669715 -373.04694491 905.75250584 -371.94140625 903.58203125 C-371.56193848 902.81930908 -371.1824707 902.05658691 -370.79150391 901.27075195 C-370.18314697 900.05391724 -370.18314697 900.05391724 -369.5625 898.8125 C-353.35323137 865.45198334 -341.37940082 829.55336099 -331 794 C-330.58741943 792.58775146 -330.58741943 792.58775146 -330.16650391 791.14697266 C-319.91871178 755.43850535 -313.67791775 718.13825126 -309.75 681.25 C-309.66673462 680.47365204 -309.58346924 679.69730408 -309.49768066 678.89743042 C-307.04909984 655.76117304 -306.75196408 632.6826464 -306.75 609.4375 C-306.74985271 608.63747936 -306.74970543 607.83745872 -306.74955368 607.01319504 C-306.75872056 553.1776143 -311.75192841 500.52881563 -324 448 C-324.3747487 446.31823089 -324.74745364 444.63600372 -325.1171875 442.953125 C-327.59145859 431.83387044 -330.75635864 420.91494182 -334 410 C-334.4655127 408.41493652 -334.4655127 408.41493652 -334.94042969 406.79785156 C-340.28698924 388.67866207 -346.50613198 370.98635916 -353.1796875 353.3203125 C-353.42000198 352.68293152 -353.66031647 352.04555054 -353.90791321 351.38885498 C-355.30195809 347.7216422 -355.30195809 347.7216422 -356.87750244 344.13031006 C-359.02666793 339.54427633 -359.02666793 339.54427633 -358.89086914 336.77270508 C-357.79495651 334.59199212 -356.54798972 333.28603772 -354.74609375 331.63671875 C-354.06474365 331.00499756 -353.38339355 330.37327637 -352.68139648 329.72241211 C-351.94091064 329.05089111 -351.2004248 328.37937012 -350.4375 327.6875 C-348.87494555 326.24485064 -347.31244682 324.80214093 -345.75 323.359375 C-344.95464844 322.63041016 -344.15929688 321.90144531 -343.33984375 321.15039062 C-339.84666711 317.94005049 -336.39311576 314.68814715 -332.9375 311.4375 C-331.61357053 310.19630595 -330.28935134 308.95542086 -328.96484375 307.71484375 C-325.64327003 304.60286403 -322.32243023 301.49010288 -319.00195312 298.37695312 C-317.00268529 296.50251762 -315.00329586 294.62821186 -313.00390625 292.75390625 C-310.323792 290.24134005 -307.64414939 287.72827219 -304.96484375 285.21484375 C-297.86597102 278.55621119 -290.75963107 271.90576365 -283.64208984 265.26708984 C-277.08916039 259.15342458 -270.55231303 253.0226535 -264.01611328 246.89111328 C-260.67807332 243.76003342 -257.33898654 240.63007036 -254 237.5 C-252.66666159 236.25000541 -251.33332826 235.00000541 -250 233.75 C-242 226.25 -234 218.75 -226 211.25 C-225.33991943 210.63116943 -224.67983887 210.01233887 -223.99975586 209.37475586 C-222.66725663 208.125548 -221.33473712 206.87636178 -220.00219727 205.62719727 C-216.65593489 202.49025515 -213.31003281 199.35293042 -209.96484375 196.21484375 C-202.86597102 189.55621119 -195.75963107 182.90576365 -188.64208984 176.26708984 C-182.08916039 170.15342458 -175.55231303 164.0226535 -169.01611328 157.89111328 C-165.67807332 154.76003342 -162.33898654 151.63007036 -159 148.5 C-157.66666159 147.25000541 -156.33332826 146.00000541 -155 144.75 C-147 137.25 -139 129.75 -131 122.25 C-130.33991943 121.63116943 -129.67983887 121.01233887 -128.99975586 120.37475586 C-127.66725663 119.125548 -126.33473712 117.87636178 -125.00219727 116.62719727 C-121.65593489 113.49025515 -118.31003281 110.35293042 -114.96484375 107.21484375 C-107.86597102 100.55621119 -100.75963107 93.90576365 -93.64208984 87.26708984 C-87.08916039 81.15342458 -80.55231303 75.0226535 -74.01611328 68.89111328 C-70.67807332 65.76003342 -67.33898654 62.63007036 -64 59.5 C-62.66666159 58.25000541 -61.33332826 57.00000541 -60 55.75 C-57.33333333 53.25 -54.66666667 50.75 -52 48.25 C-51.33991943 47.63116943 -50.67983887 47.01233887 -49.99975586 46.37475586 C-48.66725663 45.125548 -47.33473712 43.87636178 -46.00219727 42.62719727 C-42.65593489 39.49025515 -39.31003281 36.35293042 -35.96484375 33.21484375 C-32.63877865 30.09487151 -29.3115335 26.97616249 -25.98339844 23.85839844 C-24.65038855 22.60939902 -23.31771141 21.36004439 -21.98535156 20.11035156 C-14.73780942 13.31379891 -7.48741698 6.53373515 0 0 Z " fill="#FEFEFE" transform="translate(2739,1125)"/>
<path d="M0 0 C17 0 17 0 20 1 C21.43005045 1.18061745 22.86550024 1.3202927 24.30249023 1.43310547 C25.17393677 1.50355576 26.0453833 1.57400604 26.9432373 1.64659119 C27.88880493 1.71938797 28.83437256 1.79218475 29.80859375 1.8671875 C31.84172067 2.03045319 33.8748422 2.19378591 35.90795898 2.35717773 C37.50714676 2.48369217 37.50714676 2.48369217 39.13864136 2.61276245 C102.84014574 7.67661276 165.74594318 17.63498556 227.75976562 33.19287109 C230.90350591 33.97596372 234.05197189 34.73563968 237.203125 35.48828125 C249.79054399 38.51998231 262.15015071 42.07409535 274.49609375 45.97265625 C279.39615391 47.51806279 284.31669727 48.97595439 289.25 50.41015625 C297.74681604 52.89072333 306.16606239 55.57462296 314.5625 58.375 C315.31924011 58.62711243 316.07598022 58.87922485 316.85565186 59.13897705 C367.35856768 76.02377175 416.42336901 96.63195845 464.19671631 120.11462402 C466.00453579 121.00222698 467.81384797 121.88671985 469.62353516 122.77050781 C484.86347429 130.22015386 499.77304472 138.07184196 514.46435547 146.55078125 C517.47828171 148.27335646 520.52138112 149.93708734 523.57080078 151.59570312 C551.10290385 166.60974965 577.57852193 183.82703938 603.55761719 201.35253906 C605.1661016 202.43751035 606.77609265 203.52025188 608.38769531 204.60058594 C610.5959772 206.0818076 612.79886353 207.57068708 615 209.0625 C615.64050293 209.49135498 616.28100586 209.92020996 616.94091797 210.36206055 C620.71172677 212.93750769 623.86851053 215.67279244 627 219 C626.02083333 219.91796875 625.04166667 220.8359375 624.0625 221.75390625 C623.42304443 222.35340088 622.78358887 222.95289551 622.12475586 223.57055664 C620.68808989 224.91742067 619.25140313 226.26426252 617.81469727 227.61108398 C614.17677126 231.02146679 610.53910953 234.43212995 606.90234375 237.84375 C599.82432304 244.48287085 592.73874778 251.11371462 585.64208984 257.73291016 C579.08916039 263.84657542 572.55231303 269.9773465 566.01611328 276.10888672 C562.67807332 279.23996658 559.33898654 282.36992964 556 285.5 C554.66666159 286.74999459 553.33332826 287.99999459 552 289.25 C544 296.75 536 304.25 528 311.75 C527.33991943 312.36883057 526.67983887 312.98766113 525.99975586 313.62524414 C524.66725663 314.874452 523.33473712 316.12363822 522.00219727 317.37280273 C518.65593489 320.50974485 515.31003281 323.64706958 511.96484375 326.78515625 C504.86597102 333.44378881 497.75963107 340.09423635 490.64208984 346.73291016 C484.08916039 352.84657542 477.55231303 358.9773465 471.01611328 365.10888672 C467.67807332 368.23996658 464.33898654 371.36992964 461 374.5 C459.66666159 375.74999459 458.33332826 376.99999459 457 378.25 C449 385.75 441 393.25 433 400.75 C432.33991943 401.36883057 431.67983887 401.98766113 430.99975586 402.62524414 C429.66725663 403.874452 428.33473712 405.12363822 427.00219727 406.37280273 C423.65593489 409.50974485 420.31003281 412.64706958 416.96484375 415.78515625 C409.86597102 422.44378881 402.75963107 429.09423635 395.64208984 435.73291016 C389.08916039 441.84657542 382.55231303 447.9773465 376.01611328 454.10888672 C372.67807332 457.23996658 369.33898654 460.36992964 366 463.5 C364.66666159 464.74999459 363.33332826 465.99999459 362 467.25 C359.33333333 469.75 356.66666667 472.25 354 474.75 C353.33991943 475.36883057 352.67983887 475.98766113 351.99975586 476.62524414 C350.66725663 477.874452 349.33473712 479.12363822 348.00219727 480.37280273 C344.65593489 483.50974485 341.31003281 486.64706958 337.96484375 489.78515625 C330.86597102 496.44378881 323.75963107 503.09423635 316.64208984 509.73291016 C312.10967099 513.96150622 307.58425046 518.19749911 303.0625 522.4375 C302.4037085 523.0550415 301.74491699 523.67258301 301.06616211 524.30883789 C297.62433847 527.53594071 294.18534153 530.76599717 290.75 534 C287.41523602 537.13916873 284.06792326 540.26454899 280.71679688 543.38623047 C279.18584324 544.82530947 277.67722284 546.28806339 276.171875 547.75390625 C275.39328125 548.49511719 274.6146875 549.23632812 273.8125 550 C272.86310547 550.928125 272.86310547 550.928125 271.89453125 551.875 C270 553 270 553 267.75683594 552.74853516 C264.58850449 551.88827088 261.92692166 550.6307109 258.99609375 549.1484375 C257.78690566 548.54516496 256.5774182 547.94249219 255.36767578 547.34033203 C254.41009369 546.86058929 254.41009369 546.86058929 253.4331665 546.37115479 C227.42652248 533.38970581 200.50735504 522.37660441 173 513 C171.37989014 512.44022461 171.37989014 512.44022461 169.72705078 511.86914062 C153.63833329 506.31794031 137.45014788 501.36413991 121 497 C120.27377441 496.80599609 119.54754883 496.61199219 118.79931641 496.41210938 C114.21737673 495.19753713 109.61574115 494.0773914 105 493 C104.03932617 492.7745752 103.07865234 492.54915039 102.08886719 492.31689453 C86.14049026 488.60173004 70.18182473 485.49921089 54 483 C52.19595703 482.71189453 52.19595703 482.71189453 50.35546875 482.41796875 C47.23954941 481.92598149 44.12083184 481.45979773 41 481 C39.8867334 480.83201904 39.8867334 480.83201904 38.75097656 480.66064453 C36.14724177 480.26850351 33.54248758 479.88372471 30.9375 479.5 C30.1535083 479.38132568 29.3695166 479.26265137 28.56176758 479.14038086 C19.05759794 477.75957755 9.5895768 476.95895768 0 476 C0 318.92 0 161.84 0 0 Z " fill="#FEFEFE" transform="translate(1789,557)"/>
<path d="M0 0 C2.16651404 1.78832579 4.07722528 3.54719763 6.03446674 5.54227543 C6.62610163 6.12929494 7.21773652 6.71631445 7.82729974 7.32112244 C9.81940281 9.30258665 11.79684693 11.2980694 13.7747345 13.29371643 C15.20950184 14.72674043 16.64514747 16.15888551 18.08159751 17.59022278 C22.0356912 21.53534628 25.97716079 25.49287812 29.91674554 29.45248306 C34.1637408 33.71670936 38.42224505 37.96941394 42.67938232 42.22351074 C50.05668836 49.59871667 57.42669572 56.98116313 64.79163551 64.36871529 C72.51701235 72.11775031 80.24650241 79.86264397 87.98154259 87.60203362 C88.46226122 88.08302721 88.94297986 88.5640208 89.43826572 89.05958996 C91.87955776 91.50223531 94.3209237 93.94480679 96.7623181 96.38734984 C114.06008514 113.69352126 131.34855744 131.00895062 148.6315918 148.32983398 C165.42312154 165.15809391 182.21884227 181.98215279 199.02026367 198.80053711 C199.53804344 199.31884298 200.05582321 199.83714886 200.58929328 200.37116097 C205.78899714 205.57613886 210.98878643 210.78103141 216.1886383 215.98586143 C226.78158332 226.58895163 237.37395809 237.19261142 247.96598816 247.7966156 C248.69651547 248.52796665 248.69651547 248.52796665 249.44180091 249.27409247 C281.97075467 281.83985649 314.48637043 314.41893707 347 347 C344.65396204 349.41409057 342.33627111 351.18473788 339.4765625 352.9765625 C338.09114258 353.84595459 338.09114258 353.84595459 336.67773438 354.73291016 C335.67033203 355.3572998 334.66292969 355.98168945 333.625 356.625 C332.56861328 357.28161621 331.51222656 357.93823242 330.42382812 358.61474609 C301.0193597 376.78917365 270.77390577 393.26057449 240 409 C238.87078125 409.5789502 237.7415625 410.15790039 236.578125 410.75439453 C166.50519851 446.58077804 91.55325064 475.17388104 15.3125 494.8125 C13.30593858 495.33053165 11.29943034 495.8487693 9.29296875 496.3671875 C8.26091309 496.63370117 7.22885742 496.90021484 6.16552734 497.17480469 C2.99823092 498.00046117 -0.16333059 498.84548084 -3.32421875 499.6953125 C-29.9219288 506.80071506 -56.88141369 512.28481875 -84 517 C-84.6587915 517.11559265 -85.31758301 517.2311853 -85.99633789 517.35028076 C-120.29746632 523.3659879 -154.73983304 527.34667665 -189.4375 530.25 C-190.92221298 530.37462616 -190.92221298 530.37462616 -192.43692017 530.50177002 C-195.31043716 530.74046242 -198.18436508 530.97317286 -201.05859375 531.203125 C-201.86873932 531.26956207 -202.67888489 531.33599915 -203.51358032 531.40444946 C-213.00418537 532.1439726 -222.48095574 532.52404779 -232 533 C-232 375.92 -232 218.84 -232 57 C-220.45 55.68 -208.9 54.36 -197 53 C-189.64762563 51.94067764 -182.32187084 50.85678032 -175 49.625 C-173.66127335 49.40389053 -173.66127335 49.40389053 -172.29550171 49.17831421 C-157.06478629 46.65851621 -141.99994104 43.66911 -127 40 C-126.20190918 39.80809082 -125.40381836 39.61618164 -124.58154297 39.41845703 C-120.04161757 38.32575009 -115.51978178 37.17383739 -111 36 C-109.31028076 35.56324951 -109.31028076 35.56324951 -107.58642578 35.11767578 C-98.1868987 32.65194787 -88.89350469 29.91832084 -79.625 27 C-78.87931763 26.76556183 -78.13363525 26.53112366 -77.36535645 26.2895813 C-55.17082697 19.28641605 -33.00208494 11.81780292 -11.93652344 1.85717773 C-11.08606445 1.46473877 -10.23560547 1.0722998 -9.359375 0.66796875 C-8.63202148 0.32016357 -7.90466797 -0.0276416 -7.15527344 -0.38598633 C-4.26299248 -1.20996533 -2.88180335 -0.92972633 0 0 Z " fill="#FEFEFE" transform="translate(2021,2374)"/>
</svg>
